<?xml version="1.0" encoding="UTF-8"?>
<svg id="Laag_1" data-name="Laag 1" xmlns="http://www.w3.org/2000/svg" viewBox="0 0 288 79.79">
  <defs>
    <style>
      .cls-1 {
        fill: #fff;
      }

      .cls-2 {
        fill: #12d8b2;
      }
    </style>
  </defs>
  <g>
    <path class="cls-1" d="M84.19,12.99h-15.35v16.18h-6.04v11.07h6.04v19.34c0,3.35.28,6.2.84,8.56.56,2.36,1.46,4.26,2.7,5.72,1.24,1.46,2.87,2.5,4.88,3.12,2.01.62,4.57.93,7.67.93,1.18,0,2.37-.03,3.58-.09,1.21-.06,2.31-.2,3.3-.42.99-.22,1.73-.48,2.23-.79v-12.18c-.74.5-1.49.87-2.23,1.12-.74.25-1.61.37-2.6.37-1.24,0-2.23-.2-2.98-.6s-1.27-1.1-1.58-2.09c-.31-.99-.46-2.36-.46-4.09v-18.88h10.04v-11.07h-10.04V12.99Z"/>
    <path class="cls-1" d="M131.95,30.89c-3.19-1.89-7.15-2.84-11.86-2.84s-8.46.96-11.63,2.88c-3.16,1.92-5.57,4.78-7.21,8.56-1.64,3.78-2.46,8.4-2.46,13.86,0,5.15.84,9.58,2.51,13.3,1.67,3.72,4.12,6.53,7.35,8.42,3.22,1.89,7.22,2.84,12,2.84,4.22,0,7.81-.73,10.79-2.19s5.27-3.56,6.88-6.32c1.61-2.76,2.57-5.91,2.88-9.44h-13.95c-.06,1.36-.37,2.51-.93,3.44-.56.93-1.27,1.64-2.14,2.14-.87.5-1.86.74-2.98.74-1.36,0-2.6-.36-3.72-1.07-1.12-.71-2-1.92-2.65-3.63-.53-1.38-.83-3.18-.93-5.35h27.57v-3.25c0-5.33-.79-9.87-2.37-13.62-1.58-3.75-3.97-6.57-7.16-8.46ZM117.07,40.05c1.02-.8,2.22-1.21,3.58-1.21s2.63.42,3.63,1.26c.99.84,1.77,2.17,2.33,4,.35,1.15.58,2.55.71,4.14h-13.28c.14-1.51.36-2.83.67-3.95.56-2.01,1.35-3.42,2.37-4.23Z"/>
    <path class="cls-1" d="M164.64,41.54c.87-.87,1.92-1.3,3.16-1.3.81,0,1.58.29,2.33.88.74.59,1.36,1.55,1.86,2.88.5,1.33.81,3.15.93,5.44h14.88c-.12-4.77-1.07-8.76-2.84-11.95-1.77-3.19-4.2-5.56-7.3-7.11-3.1-1.55-6.64-2.33-10.6-2.33-4.65,0-8.53.98-11.62,2.93-3.1,1.95-5.46,4.78-7.07,8.46-1.61,3.69-2.42,8.17-2.42,13.44s.76,9.95,2.28,13.67c1.52,3.72,3.89,6.54,7.11,8.46,3.22,1.92,7.22,2.88,12,2.88,4.34,0,7.98-.79,10.93-2.37,2.94-1.58,5.21-3.92,6.79-7.02,1.58-3.1,2.4-6.91,2.46-11.44h-14.79c-.12,3.1-.62,5.35-1.49,6.74-.87,1.39-2.02,2.09-3.44,2.09-1.24,0-2.28-.45-3.12-1.35-.84-.9-1.5-2.31-2-4.23-.5-1.92-.74-4.4-.74-7.44s.23-5.39.7-7.25c.46-1.86,1.13-3.22,2-4.09Z"/>
    <path class="cls-1" d="M231.04,32.52c-1.24-1.49-2.73-2.6-4.46-3.35-1.74-.74-3.66-1.12-5.77-1.12-3.04,0-5.63.85-7.77,2.56-1.64,1.31-2.99,3.04-4.05,5.19V6.57h-15.81v70.31h15.81v-24.92c0-2.85.25-5.05.74-6.6.5-1.55,1.13-2.63,1.91-3.25.77-.62,1.69-.93,2.74-.93.74,0,1.41.12,2,.37.59.25,1.1.67,1.53,1.26.43.59.74,1.39.93,2.42.19,1.02.28,2.28.28,3.77v27.9h15.72v-30.6c0-3.1-.33-5.8-.98-8.09-.65-2.29-1.6-4.19-2.84-5.67Z"/>
    <polygon class="cls-1" points="284.42 76.88 272.78 52.29 283.86 29.17 267.96 29.17 261.85 45.64 255.96 29.17 238.66 29.17 249.66 52.8 238.29 76.88 254.38 76.88 260.77 60.15 267.22 76.88 284.42 76.88"/>
  </g>
  <path class="cls-2" d="M5.12,75.23v-13.21l24.09-13.02-24.09-13.02v-13.3l38.69,20.92v10.79L5.12,75.23Z"/>
</svg>